<svg width="24" height="25" viewBox="0 0 24 25" fill="none" xmlns="http://www.w3.org/2000/svg">
<path d="M15.49 21.26C15.3 21.26 15.11 21.19 14.96 21.04C14.67 20.75 14.67 20.27 14.96 19.98L19.97 14.97C20.26 14.68 20.74 14.68 21.03 14.97C21.32 15.26 21.32 15.74 21.03 16.03L16.02 21.04C15.87 21.18 15.68 21.26 15.49 21.26Z" fill="#292D32"/>
<path d="M20.5 16.24H3.5C3.09 16.24 2.75 15.9 2.75 15.49C2.75 15.08 3.09 14.74 3.5 14.74H20.5C20.91 14.74 21.25 15.08 21.25 15.49C21.25 15.9 20.91 16.24 20.5 16.24Z" fill="#292D32"/>
<path d="M3.5 10.26C3.31 10.26 3.12 10.19 2.97 10.04C2.68 9.75 2.68 9.27 2.97 8.98L7.98 3.97C8.27 3.68 8.75 3.68 9.04 3.97C9.33 4.26 9.33 4.74 9.04 5.03L4.03 10.04C3.89 10.18 3.69 10.26 3.5 10.26Z" fill="#292D32"/>
<path d="M20.5 10.26H3.5C3.09 10.26 2.75 9.92001 2.75 9.51001C2.75 9.10001 3.09 8.76001 3.5 8.76001H20.5C20.91 8.76001 21.25 9.10001 21.25 9.51001C21.25 9.92001 20.91 10.26 20.5 10.26Z" fill="#292D32"/>
</svg>
