<svg width="25" height="24" viewBox="0 0 25 24" fill="none" xmlns="http://www.w3.org/2000/svg">
<path d="M18.3701 21.87C18.0601 21.87 17.7501 21.79 17.4701 21.62L13.4601 19.24C13.0401 19.23 12.6201 19.2 12.2201 19.14C11.9501 19.1 11.7201 18.92 11.6201 18.66C11.5201 18.4 11.5701 18.12 11.7501 17.91C12.4101 17.14 12.7501 16.22 12.7501 15.24C12.7501 12.82 10.6201 10.85 8.00008 10.85C7.02008 10.85 6.08007 11.12 5.29007 11.64C5.07007 11.78 4.80007 11.8 4.56007 11.69C4.33007 11.58 4.16008 11.36 4.13008 11.1C4.10008 10.82 4.08008 10.54 4.08008 10.25C4.08008 5.29 8.38008 1.26001 13.6601 1.26001C18.9401 1.26001 23.2401 5.29 23.2401 10.25C23.2401 12.97 21.9801 15.47 19.7601 17.18L20.1001 19.9C20.1801 20.58 19.8801 21.22 19.3101 21.59C19.0301 21.77 18.7001 21.87 18.3701 21.87ZM13.6501 17.73C13.7901 17.72 13.9301 17.76 14.0501 17.84L18.2401 20.33C18.3501 20.4 18.4401 20.37 18.5001 20.33C18.5501 20.3 18.6301 20.22 18.6101 20.08L18.2201 16.92C18.1901 16.64 18.3101 16.37 18.5301 16.21C20.5701 14.78 21.7401 12.6 21.7401 10.23C21.7401 6.09998 18.1201 2.73999 13.6601 2.73999C9.37008 2.73999 5.85007 5.86003 5.59007 9.78003C6.34007 9.49003 7.15008 9.33002 7.99008 9.33002C11.4401 9.33002 14.2401 11.97 14.2401 15.22C14.2501 16.1 14.0401 16.95 13.6501 17.73Z" fill="#292D32"/>
<path d="M5.07977 22.7501C4.81977 22.7501 4.56977 22.6801 4.33977 22.5301C3.88977 22.2401 3.64978 21.7401 3.70978 21.2101L3.90977 19.67C2.55977 18.57 1.75977 16.94 1.75977 15.23C1.75977 13.28 2.77978 11.4601 4.48978 10.3701C5.51978 9.70006 6.73977 9.34009 8.00977 9.34009C11.4598 9.34009 14.2598 11.98 14.2598 15.23C14.2598 16.55 13.7798 17.8501 12.8998 18.8801C11.7698 20.2501 10.0798 21.05 8.21977 21.11L5.77977 22.5601C5.55977 22.6901 5.31977 22.7501 5.07977 22.7501ZM7.99977 10.8401C7.01977 10.8401 6.07976 11.1101 5.28976 11.6301C4.00976 12.4501 3.24977 13.79 3.24977 15.23C3.24977 16.62 3.92978 17.8901 5.12978 18.7101C5.35978 18.8701 5.47977 19.14 5.44977 19.42L5.22977 21.1301L7.61977 19.7101C7.73977 19.6401 7.86977 19.6 7.99977 19.6C9.46977 19.6 10.8598 18.9701 11.7398 17.9001C12.3998 17.1201 12.7498 16.2 12.7498 15.22C12.7498 12.81 10.6198 10.8401 7.99977 10.8401Z" fill="#292D32"/>
</svg>
