<svg width="70" height="70" viewBox="0 0 70 70" fill="none" xmlns="http://www.w3.org/2000/svg">
<path d="M35 47.3958C27.3583 47.3958 21.1458 41.1833 21.1458 33.5417V17.5C21.1458 9.85834 27.3583 3.64584 35 3.64584C42.6416 3.64584 48.8541 9.85834 48.8541 17.5V33.5417C48.8541 41.1833 42.6416 47.3958 35 47.3958ZM35 8.02084C29.7791 8.02084 25.5208 12.2792 25.5208 17.5V33.5417C25.5208 38.7625 29.7791 43.0208 35 43.0208C40.2208 43.0208 44.4791 38.7625 44.4791 33.5417V17.5C44.4791 12.2792 40.2208 8.02084 35 8.02084Z" fill="#292D32"/>
<path d="M34.9999 57.6041C21.4958 57.6041 10.4999 46.6083 10.4999 33.1041V28.1458C10.4999 26.95 11.4916 25.9583 12.6874 25.9583C13.8833 25.9583 14.8749 26.95 14.8749 28.1458V33.1041C14.8749 44.1875 23.9166 53.2291 34.9999 53.2291C46.0833 53.2291 55.1249 44.1875 55.1249 33.1041V28.1458C55.1249 26.95 56.1166 25.9583 57.3124 25.9583C58.5083 25.9583 59.4999 26.95 59.4999 28.1458V33.1041C59.4999 46.6083 48.5041 57.6041 34.9999 57.6041Z" fill="#292D32"/>
<path d="M39.0541 20.9417C38.8208 20.9417 38.5583 20.9125 38.2958 20.825C36.1666 20.0375 33.8333 20.0375 31.7041 20.825C30.5666 21.2333 29.3125 20.65 28.9041 19.5125C28.4958 18.375 29.0791 17.1208 30.2166 16.7125C33.3083 15.6042 36.7208 15.6042 39.8125 16.7125C40.95 17.1208 41.5333 18.375 41.125 19.5125C40.775 20.3875 39.9291 20.9417 39.0541 20.9417Z" fill="#292D32"/>
<path d="M37.3334 27.125C37.1292 27.125 36.9542 27.0958 36.75 27.0375C35.5834 26.7167 34.3875 26.7167 33.2209 27.0375C32.0542 27.3583 30.8584 26.6583 30.5375 25.4917C30.2167 24.3542 30.9167 23.1583 32.0834 22.8375C33.9792 22.3125 36.0209 22.3125 37.9167 22.8375C39.0834 23.1583 39.7834 24.3542 39.4625 25.5208C39.2 26.4833 38.2959 27.125 37.3334 27.125Z" fill="#292D32"/>
<path d="M35 66.3542C33.8042 66.3542 32.8125 65.3625 32.8125 64.1667V55.4167C32.8125 54.2208 33.8042 53.2292 35 53.2292C36.1958 53.2292 37.1875 54.2208 37.1875 55.4167V64.1667C37.1875 65.3625 36.1958 66.3542 35 66.3542Z" fill="#292D32"/>
</svg>
